<?xml version="1.0" encoding="UTF-8" standalone="no"?>
<!DOCTYPE svg PUBLIC "-//W3C//DTD SVG 1.1//EN" "http://www.w3.org/Graphics/SVG/1.1/DTD/svg11.dtd">
<svg width="100%" height="100%" viewBox="0 0 125 125" version="1.1" xmlns="http://www.w3.org/2000/svg" xmlns:xlink="http://www.w3.org/1999/xlink" xml:space="preserve" xmlns:serif="http://www.serif.com/" style="fill-rule:evenodd;clip-rule:evenodd;stroke-linejoin:round;stroke-miterlimit:2;">
    <g id="HAP-Icon" serif:id="HAP Icon" transform="matrix(0.73198,0,0,0.73198,17.52,15.2001)">
        <path id="path4865" d="M70,51.25L70,48.75L72.5,48.75L72.5,46.25L75,46.25L75,43.75L117.5,43.75L117.5,46.25L120,46.25L120,48.75L122.5,48.75L122.5,51.25L70,51.25Z" style="fill:white;"/>
        <rect id="path4868" x="78.75" y="20" width="5" height="22.5" style="fill:white;"/>
        <rect id="path4868-2" x="88.75" y="20" width="5" height="22.5" style="fill:white;"/>
        <rect id="path4868-2-7" x="98.75" y="20" width="5" height="22.5" style="fill:white;"/>
        <rect id="path4868-2-7-0" x="108.75" y="20" width="5" height="22.5" style="fill:white;"/>
        <rect id="path4919" x="77.5" y="16.25" width="37.5" height="2.5" style="fill:white;"/>
        <path id="path4922" d="M72.5,15L72.5,12.5L95,1.25L97.5,1.25L120,12.5L120,15L72.5,15Z" style="fill:white;"/>
        <g id="g5790">
            <path id="path4839" d="M42.75,76.25L42.75,57.5L49,63.75L59,53.75L65.25,60L55.25,70L61.5,76.25L42.75,76.25Z" style="fill:white;"/>
            <path id="path4839-2" d="M81.5,53.75L81.5,72.5L75.25,66.25L65.25,76.25L59,70L69,60L62.75,53.75L81.5,53.75Z" style="fill:white;"/>
        </g>
        <g id="g5795">
            <path id="rect4792" d="M5.75,90L5.75,121.25L23.3,121.25L23.25,107.5L32,107.5L32,121.25L49.5,121.25L49.5,90L5.75,90ZM39.5,93.75L45.75,93.75L45.75,100L39.5,100L39.5,93.75Z" style="fill:white;fill-rule:nonzero;"/>
            <path id="path4247" d="M5.74,87.5L13.25,80L13.25,68.75L20.75,68.75L20.75,73.75L27,67.5L29.5,67.5L49.5,87.5L5.74,87.5Z" style="fill:white;"/>
        </g>
    </g>
</svg>
